<svg width="25" height="24" viewBox="0 0 25 24" fill="none" xmlns="http://www.w3.org/2000/svg">
<path d="M17.1571 11.2551C17.0692 11.2129 16.9799 11.1724 16.8895 11.1336C16.7321 8.23223 15.1467 6.57121 12.4847 6.55421C12.4726 6.55413 12.4606 6.55413 12.4486 6.55413C10.8564 6.55413 9.53214 7.23377 8.71709 8.4705L10.1811 9.47478C10.79 8.55099 11.7456 8.35406 12.4493 8.35406C12.4574 8.35406 12.4656 8.35406 12.4736 8.35413C13.3501 8.35972 14.0115 8.61456 14.4396 9.11154C14.7511 9.47335 14.9595 9.97333 15.0627 10.6043C14.2855 10.4722 13.4451 10.4316 12.5467 10.4831C10.0157 10.6289 8.38868 12.105 8.49796 14.1561C8.55341 15.1965 9.07172 16.0915 9.95734 16.6762C10.7061 17.1705 11.6705 17.4122 12.6728 17.3575C13.9964 17.2849 15.0348 16.7799 15.7592 15.8565C16.3094 15.1553 16.6574 14.2465 16.811 13.1014C17.4418 13.4821 17.9093 13.9831 18.1675 14.5853C18.6065 15.609 18.6321 17.2913 17.2595 18.6628C16.0568 19.8642 14.6112 20.384 12.4264 20.4001C10.0029 20.3821 8.17009 19.6049 6.97842 18.09C5.86252 16.6714 5.28582 14.6225 5.2643 12C5.28582 9.37757 5.86252 7.32862 6.97842 5.91009C8.17009 4.39519 10.0029 3.61799 12.4264 3.59998C14.8675 3.61812 16.7323 4.39907 17.9696 5.92127C18.5762 6.66774 19.0336 7.60648 19.3352 8.70102L21.0508 8.24328C20.6853 6.89603 20.1102 5.73509 19.3275 4.77229C17.7413 2.82076 15.4215 1.82078 12.4324 1.80005H12.4204C9.43742 1.82071 7.14354 2.82449 5.60251 4.78347C4.2312 6.52673 3.52384 8.95234 3.50007 11.9929L3.5 12L3.50007 12.0072C3.52384 15.0477 4.2312 17.4734 5.60251 19.2167C7.14354 21.1756 9.43742 22.1794 12.4204 22.2001H12.4324C15.0844 22.1817 16.9538 21.4873 18.4938 19.9487C20.5086 17.9358 20.4479 15.4127 19.7839 13.8638C19.3074 12.753 18.3991 11.8509 17.1571 11.2551ZM12.5781 15.5602C11.4688 15.6226 10.3164 15.1248 10.2596 14.0583C10.2175 13.2676 10.8223 12.3853 12.6461 12.2802C12.855 12.2682 13.0599 12.2623 13.2613 12.2623C13.9238 12.2623 14.5435 12.3266 15.107 12.4498C14.8968 15.0744 13.6641 15.5006 12.5781 15.5602Z" fill="white"/>
</svg>
